<?xml version="1.0" standalone="no"?>
<!DOCTYPE svg PUBLIC "-//W3C//DTD SVG 20010904//EN"
 "http://www.w3.org/TR/2001/REC-SVG-20010904/DTD/svg10.dtd">
<svg version="1.0" xmlns="http://www.w3.org/2000/svg"
 width="260.000000pt" height="260.000000pt" viewBox="0 0 260.000000 260.000000"
 preserveAspectRatio="xMidYMid meet">
<metadata>
Created by potrace 1.11, written by Peter Selinger 2001-2013
</metadata>
<g transform="translate(0.000000,260.000000) scale(0.100000,-0.100000)"
fill="#000000" stroke="none">
<path d="M761 2488 c-21 -72 -61 -135 -121 -192 -89 -85 -192 -128 -339 -142
l-74 -7 6 -177 c11 -303 45 -501 127 -752 113 -343 299 -647 555 -903 124
-125 312 -275 344 -275 59 0 430 336 558 505 177 234 310 510 388 805 53 200
78 389 79 600 l1 195 -64 7 c-230 25 -394 148 -470 351 l-11 27 -483 0 -484 0
-12 -42z m941 -90 c27 -56 96 -135 161 -184 79 -59 163 -98 256 -117 40 -9 76
-18 79 -22 11 -11 5 -293 -7 -400 -53 -439 -231 -869 -499 -1205 -89 -112
-258 -283 -360 -364 l-73 -58 -70 58 c-149 121 -345 351 -474 555 -248 391
-380 814 -410 1310 l-6 107 58 6 c200 24 363 129 434 280 l31 66 432 0 432 0
16 -32z"/>
<path d="M830 2328 c-28 -104 -101 -193 -200 -243 -59 -30 -163 -55 -229 -55
l-44 0 6 -133 c25 -511 233 -1068 541 -1451 76 -94 257 -288 263 -282 3 3 -27
42 -67 87 -356 403 -583 949 -630 1514 -17 200 -19 192 66 219 162 52 265 160
309 328 7 27 9 50 5 53 -5 3 -14 -14 -20 -37z"/>
<path d="M1103 2105 l-32 -96 55 -90 c30 -49 54 -97 54 -107 -1 -9 -54 -264
-119 -567 l-119 -550 56 -60 c31 -33 107 -113 169 -179 l113 -118 167 173 c93
95 167 178 167 185 -1 7 -55 261 -119 564 l-118 552 52 106 52 107 -29 85 -29
85 -144 3 -144 3 -32 -96z"/>
</g>
</svg>
